<?xml version="1.0" encoding="utf-8"?>
<!-- Generator: Adobe Illustrator 28.2.0, SVG Export Plug-In . SVG Version: 6.00 Build 0)  -->
<svg version="1.1" id="图层_1" xmlns="http://www.w3.org/2000/svg" x="0px"
     y="0px"
     viewBox="0 0 128 128" style="enable-background:new 0 0 128 128;" xml:space="preserve">
<style type="text/css">
	.st0{fill:#B6ADE6;}
</style>
    <path class="st0" d="M33.2,97.7c2.7-2.7,5.2-5.3,7.9-7.8c0.4-0.4,1.3-0.4,1.9-0.4c7.3,0.4,14.5,1.1,21.8,1.4
	c6,0.2,11.6-1.3,16.2-5.4c0.9-0.8,2-1.3,3-0.2c1,1.1,0.2,2.2-0.5,3c-6.6,7.8-15,12.2-25.3,12.8c-8.4,0.5-16.6-1.1-24.7-3
	C33.6,98,33.5,97.9,33.2,97.7z M51.1,73.8c2.7-2.7,5.4-5.5,8.3-8.2c1.2-1.1,1.5-2.3,1.4-3.9c-0.2-5.7-0.4-11.3-0.4-17
	c0-4.1,1.1-8,2.7-11.8c0.3-0.6,0.2-1.8-0.2-2.1c-0.4-0.4-1.5-0.1-2.2,0c-0.3,0-0.6,0.3-0.8,0.5c-5.2,3.4-8.2,8.3-9.4,14.4
	c-1.3,6.6-1.1,13.2-0.5,19.9c0.2,2.7,0.4,5.4,0.7,8.2C50.7,73.7,50.9,73.8,51.1,73.8z M35.2,89.7c1.4-1.2,1.8-2.6,1.7-4.4
	c-0.3-7-0.6-14-0.8-21c-0.2-6.2,1.2-11.9,5.2-16.8c0.5-0.6,1.2-1.2,1.5-1.9c0.2-0.5,0.1-1.4-0.2-1.7c-0.3-0.3-1.2-0.3-1.7-0.3
	c-0.4,0-0.8,0.4-1.1,0.6c-6.6,5.3-10.9,12-12,20.6c-0.8,6.4,0,12.7,0.8,19c0.5,3.4,1.2,6.7,2,10.6C32.3,92.5,33.6,91,35.2,89.7z
	 M65.7,59.1c3.5-3.5,7-6.9,10.4-10.4c0.5-0.5,0.7-1.6,0.7-2.4c0-3.1-0.1-6.3-0.2-9.4c-0.1-3.8,0.4-7.5,1.7-11.1c0.3-0.9,0.2-2,0.4-3
	c-1,0.3-2.2,0.4-3.1,1c-4,2.7-6.7,6.4-8.6,10.9c-3.4,8-2,16.3-1.9,24.9C65.5,59.3,65.6,59.2,65.7,59.1z M98,34.2
	c9.7,0.7,16.8-7.5,16.2-17.2c-0.1-2.1-1.3-3.4-3.4-3.4c-2.4,0.1-5,0.4-7.3,1.1C97.7,16.5,93.6,22,93.3,28c-0.1,1,0.1,2,0.3,3.3
	c2.4-2.4,4.3-4.4,6.4-6.4c0.9-0.9,2.1-1.4,3.2-0.2c1,1,0.7,2.2-0.2,3.2c-0.3,0.4-0.7,0.7-1,1.1c-1.6,1.6-3.2,3.2-5,5
	C97.6,34.2,97.8,34.2,98,34.2z M55.7,76.7c7.6,0.4,15.2,1.1,22.8,1c6.7,0,12.5-2.8,16.9-8c0.7-0.9,1.4-1.8,1.9-2.8
	c0.2-0.4,0.1-1.3-0.3-1.6c-0.3-0.3-1.1-0.2-1.6-0.1c-0.3,0.1-0.6,0.5-0.9,0.6c-2.4,1.3-4.7,3.1-7.3,3.7c-3.4,0.8-7,1.1-10.6,1.1
	c-4.6,0-9.2-0.6-13.7-0.9c-0.7,0-1.7-0.2-2.2,0.2c-2.1,1.9-4.1,4-6.4,6.3C55.1,76.6,55.4,76.7,55.7,76.7z M75.6,56.8
	c5,0.3,10,0.8,15,0.8c2.6,0,5.4-0.4,7.9-1.2c2.9-0.8,5.2-2.8,6.5-5.7c0.9-1.9,0.1-2.9-2-2.8c-1.3,0.1-2.7,0.3-4,0.3
	c-5-0.1-9.9-0.2-14.9-0.3c-0.6,0-1.5,0.1-1.9,0.5c-2.6,2.5-5.2,5.1-8.1,8C75.1,56.7,75.3,56.8,75.6,56.8z M89,35.8
	c0.3-0.3,0.4-1,0.3-1.5c-1.1-5.8-0.2-11.3,3.2-16.2c0.3-0.4,0.2-1.2,0.3-1.7c-0.6,0.1-1.3-0.1-1.8,0.2c-2.7,1.5-4.9,3.5-6.6,6.1
	c-4.1,6.4-3.5,13.5-3.1,20.9C84,40.7,86.5,38.3,89,35.8z M44.1,50.8c-0.6,1-1.5,1.9-1.9,3c-0.7,2.3-1.4,4.6-1.5,6.9
	c-0.2,4.2-0.1,8.4,0.1,12.6c0.1,3.2,0.4,6.4,0.6,10c1.6-1.6,2.9-2.8,4.1-4.1c0.5-0.6,0.9-1.5,0.8-2.2C46,69.6,45.5,62.2,45,54.7
	c-0.1-1.2-0.1-2.4-0.2-3.6C44.6,51,44.4,50.9,44.1,50.8z M46.4,85.4c7.3,0.4,14.5,1,21.8,1c2.3,0,4.6-1.2,6.9-2
	c0.6-0.2,1-0.9,1.7-1.7c-0.9-0.2-1.3-0.4-1.8-0.4c-8.1-0.5-16.2-1-24.2-1.5c-0.4,0-1,0.1-1.3,0.4c-1.3,1.2-2.5,2.5-3.9,3.9
	C46.1,85.3,46.2,85.4,46.4,85.4z M87.8,43.9c5,0.4,10.1,0.9,15.1-0.2c4-0.9,6.6-3.6,8.4-7c0.3-0.5,0.1-1.2,0.1-1.7
	c-0.6,0.1-0.6-0.3-1.7,0.2c-4.9,3.1-10.1,4.2-15.8,2.9c-0.4-0.1-1-0.1-1.2,0.1c-1.8,1.7-3.5,3.5-5.2,5.2
	C87.6,43.5,87.7,43.7,87.8,43.9z M20.1,89.3c1,3.4,3.1,6,6.1,8.6C26.1,97,26.1,96.5,26,96c-1.5-7.3-2.6-14.7-2.9-22.1
	c0-0.9-0.2-2-0.8-2.7c-0.4-0.6-1.4-1-2.1-1c-0.4,0-1.1,0.9-1.3,1.6c-1,3.9-1,8.1-0.4,11.7 M89.7,61.9c-6.2-0.4-12.4-0.8-18.6-1.1
	c-0.5,0-1.1,0-1.4,0.3c-1.4,1.3-2.8,2.8-4.4,4.4c0.7,0.2,0.9,0.3,1,0.3c5,0.3,10,0.7,15,0.8c3.7,0.1,7.3-0.8,10.5-4
	C91,62.3,90.3,61.9,89.7,61.9z M44.8,109.7c4,0.7,7.9,0.7,11.8-0.6c0.9-0.3,1.9-0.9,1.5-1.9c-0.3-0.7-1.2-1.4-2-1.7
	c-0.8-0.3-1.8-0.1-2.7-0.1c-7.7-0.2-15.2-1.5-22.8-3.2c2.2,3.2,5.3,5.1,9.1,6.2 M18.6,106.5c-1.3,1.3-2.7,2.6-4,4
	c-0.9,0.9-1.3,2.1-0.2,3.2c1.1,1.1,2.2,0.7,3.2-0.2c2.7-2.6,5.3-5.2,7.9-7.9c0.9-0.9,1.5-2.1,0.4-3.3c-0.8-0.9-2.2-0.7-3.4,0.4
	C21.1,103.9,19.8,105.2,18.6,106.5C18.6,106.5,18.6,106.5,18.6,106.5z"/>
</svg>
