<?xml version="1.0" encoding="utf-8"?>
<!-- Generator: Adobe Illustrator 28.2.0, SVG Export Plug-In . SVG Version: 6.00 Build 0)  -->
<svg version="1.1" id="Luminol" xmlns="http://www.w3.org/2000/svg" x="0px"
     y="0px"
     viewBox="0 0 256 256" style="enable-background:new 0 0 256 256;" xml:space="preserve">
<style type="text/css">
	.st0{fill:#FFFFFF;}
</style>
    <path class="st0" d="M66.8,194.9c5.3-5.3,10.4-10.5,15.7-15.5c0.8-0.8,2.6-0.8,3.8-0.7c14.5,0.9,28.9,2.2,43.4,2.7
	c11.9,0.4,23-2.7,32.2-10.7c1.8-1.6,4.1-2.6,6-0.5c2,2.2,0.4,4.3-1,6c-13.1,15.6-29.7,24.2-50.2,25.4c-16.7,0.9-32.9-2.3-49-5.9
	C67.5,195.6,67.4,195.4,66.8,194.9z M102.3,147.6c5.5-5.5,10.8-11,16.4-16.3c2.4-2.2,2.9-4.6,2.8-7.7c-0.5-11.2-0.8-22.5-0.9-33.8
	c-0.1-8.2,2.2-15.9,5.3-23.4c0.5-1.2,0.4-3.6-0.4-4.3c-0.9-0.7-2.9-0.2-4.4-0.1c-0.6,0.1-1.1,0.6-1.6,1
	c-10.3,6.8-16.3,16.5-18.7,28.5c-2.6,13.1-2.1,26.3-0.9,39.4c0.5,5.4,0.9,10.8,1.3,16.2C101.6,147.3,102,147.4,102.3,147.6z
	 M70.8,179c2.8-2.4,3.6-5.2,3.5-8.7c-0.7-13.9-1.2-27.9-1.6-41.8c-0.4-12.3,2.4-23.6,10.2-33.4c1-1.3,2.3-2.4,2.9-3.8
	c0.4-1,0.3-2.8-0.4-3.4c-0.7-0.7-2.3-0.6-3.5-0.5c-0.8,0.1-1.5,0.7-2.2,1.3C66.6,99.1,58.2,112.4,56,129.4
	c-1.7,12.7-0.1,25.3,1.6,37.8c0.9,6.7,2.5,13.4,3.9,21C65,184.7,67.7,181.6,70.8,179z M131.4,118.3c6.9-6.9,13.9-13.7,20.6-20.7
	c1-1.1,1.4-3.1,1.4-4.7c0-6.2-0.2-12.4-0.4-18.6c-0.2-7.6,0.8-14.9,3.3-22.1c0.6-1.9,0.5-4,0.7-6c-2.1,0.6-4.4,0.8-6.2,1.9
	c-8,5.3-13.4,12.8-17.1,21.6c-6.7,15.9-4,32.5-3.8,49.4C130.9,118.6,131.2,118.5,131.4,118.3z M195.5,68.9
	c19.2,1.4,33.4-15,32.2-34.2c-0.3-4.1-2.7-6.8-6.8-6.7c-4.8,0.1-9.8,0.8-14.5,2.2c-11.5,3.5-19.7,14.4-20.3,26.4
	c-0.1,1.9,0.3,3.9,0.5,6.6c4.7-4.7,8.6-8.8,12.7-12.7c1.8-1.7,4.2-2.7,6.3-0.5c2,2.1,1.3,4.3-0.4,6.4c-0.6,0.7-1.3,1.4-2,2.1
	c-3.1,3.2-6.3,6.3-10,10C194.7,68.7,195.1,68.8,195.5,68.9z M111.5,153.3c15.1,0.8,30.2,2.1,45.3,2.1c13.3,0,24.8-5.5,33.5-15.9
	c1.4-1.7,2.7-3.6,3.7-5.6c0.4-0.8,0.1-2.6-0.5-3.1c-0.7-0.6-2.2-0.3-3.2-0.1c-0.7,0.1-1.2,0.9-1.8,1.3c-4.8,2.6-9.3,6.1-14.4,7.4
	c-6.8,1.7-14,2.2-21,2.1c-9.1-0.1-18.2-1.2-27.3-1.8c-1.4-0.1-3.4-0.3-4.3,0.5c-4.3,3.9-8.2,8-12.7,12.5
	C110.3,152.9,110.9,153.2,111.5,153.3z M151,113.8c9.9,0.6,19.9,1.5,29.8,1.6c5.3,0,10.7-0.9,15.8-2.4c5.8-1.7,10.4-5.6,13-11.2
	c1.7-3.8,0.2-5.9-3.9-5.6c-2.7,0.2-5.3,0.7-8,0.6c-9.8-0.1-19.7-0.5-29.5-0.6c-1.3,0-2.9,0.3-3.8,1.1c-5.2,5-10.3,10.2-16,15.9
	C150,113.5,150.5,113.7,151,113.8z M177.6,71.9c0.6-0.6,0.8-2,0.6-2.9c-2.2-11.6-0.5-22.4,6.3-32.2c0.6-0.9,0.4-2.3,0.6-3.5
	c-1.2,0.1-2.6-0.1-3.5,0.4c-5.3,3-9.8,6.9-13.1,12.1c-8,12.7-7,26.7-6.2,41.4C167.8,81.8,172.8,76.9,177.6,71.9z M88.5,101.8
	c-1.3,2-3.1,3.8-3.7,6c-1.3,4.5-2.7,9.1-2.9,13.8c-0.4,8.3-0.1,16.7,0.1,25.1c0.2,6.4,0.7,12.8,1.2,19.9c3.1-3.1,5.8-5.5,8.1-8.2
	c1-1.1,1.7-3,1.6-4.4c-0.7-14.8-1.7-29.5-2.5-44.3c-0.1-2.4-0.2-4.8-0.4-7.2C89.5,102.2,89,102,88.5,101.8z M93,170.6
	c14.4,0.8,28.9,1.9,43.3,2.1c4.6,0.1,9.2-2.3,13.7-3.9c1.2-0.4,2-1.9,3.5-3.4c-1.7-0.4-2.6-0.8-3.5-0.8c-16.1-1-32.1-2-48.2-3
	c-0.9-0.1-2.1,0.1-2.7,0.7c-2.6,2.4-5,4.9-7.8,7.7C92.4,170.4,92.7,170.5,93,170.6z M175.3,88c10,0.8,20,1.7,30-0.4
	c7.9-1.7,13-7.1,16.8-13.9c0.5-0.9,0.1-2.3,0.2-3.5c-1.2,0.1-1.2-0.5-3.5,0.5c-9.7,6.2-20.1,8.3-31.3,5.7c-0.7-0.2-1.9-0.2-2.4,0.2
	c-3.5,3.4-7,6.9-10.4,10.3C174.8,87.3,175.1,87.6,175.3,88z M40.8,178.2c1.9,6.8,6.2,12,12,17.1c-0.2-1.8-0.2-2.8-0.4-3.8
	c-3-14.5-5.1-29.1-5.8-44c-0.1-1.9-0.5-4-1.5-5.5c-0.8-1.2-2.8-2-4.2-2c-0.9,0-2.2,1.9-2.5,3.1c-2,7.7-1.9,16-0.8,23.3 M179,123.8
	c-12.3-0.8-24.6-1.6-36.9-2.3c-0.9-0.1-2.1,0-2.7,0.6c-2.9,2.6-5.6,5.5-8.7,8.6c1.3,0.4,1.7,0.6,2.1,0.6c9.9,0.6,19.9,1.4,29.8,1.7
	c7.4,0.2,14.5-1.6,20.8-7.9C181.6,124.5,180.3,123.9,179,123.8z M89.9,218.8c7.9,1.4,15.8,1.3,23.5-1.3c1.8-0.6,3.8-1.7,2.9-3.8
	c-0.6-1.4-2.5-2.7-4.1-3.3c-1.6-0.6-3.6-0.2-5.4-0.2c-15.3-0.4-30.2-3.1-45.3-6.3c4.4,6.4,10.6,10.2,18,12.3 M37.8,212.4
	c-2.6,2.6-5.4,5.2-7.9,8c-1.7,1.9-2.5,4.2-0.5,6.3c2.1,2.2,4.5,1.3,6.3-0.4c5.3-5.1,10.5-10.4,15.6-15.7c1.8-1.9,2.9-4.2,0.8-6.6
	c-1.6-1.8-4.4-1.4-6.8,0.9C42.7,207.4,40.3,209.9,37.8,212.4C37.8,212.4,37.8,212.4,37.8,212.4z"/>
</svg>
